<?xml version="1.0" standalone="no"?>
<!DOCTYPE svg PUBLIC "-//W3C//DTD SVG 20010904//EN"
 "http://www.w3.org/TR/2001/REC-SVG-20010904/DTD/svg10.dtd">
<svg version="1.0" xmlns="http://www.w3.org/2000/svg"
 width="500.000000pt" height="500.000000pt" viewBox="0 0 500.000000 500.000000"
 preserveAspectRatio="xMidYMid meet">

<g transform="translate(0.000000,500.000000) scale(0.100000,-0.100000)"
fill="#000000" stroke="none">
<path d="M902 3502 c-202 -236 -303 -476 -319 -763 -25 -456 204 -884 597
-1114 367 -215 843 -211 1209 12 105 63 248 182 272 225 7 13 -4 34 -47 90
-83 109 -168 289 -204 432 -17 65 -30 136 -30 157 0 58 -14 47 -28 -20 -32
-155 -164 -322 -312 -395 -242 -118 -513 -74 -700 114 -124 124 -174 243 -173
415 1 146 47 268 143 377 22 26 40 49 40 52 0 7 -409 440 -418 443 -4 1 -17
-10 -30 -25z"/>
<path d="M3974 2208 c-19 -23 -19 -23 2 -5 11 9 24 17 27 17 4 0 7 -149 7
-330 l0 -331 -22 -9 c-13 -5 -17 -9 -9 -9 21 -1 174 73 248 121 37 25 96 69
131 98 l63 54 -208 208 c-114 114 -211 208 -214 208 -3 0 -14 -10 -25 -22z"/>
</g>
</svg>
